# Blender v2.79 (sub 0) OBJ File: 'fork2.blend'
# www.blender.org
mtllib fork2_collider.mtl
o Plane.001_Plane.003
v -0.631382 0.027020 -2.790614
v -0.523337 0.432390 -4.742181
v 0.567637 0.030155 -2.782624
v 0.483494 0.435022 -4.735471
v -0.638233 0.074815 -1.781283
v 0.560786 0.077949 -1.773293
v -0.303361 0.117228 -1.394012
v 0.214418 0.118581 -1.390562
v -0.159390 0.144865 -1.166762
v 0.137315 0.144865 -1.169278
v -0.212505 0.304960 1.065920
v 0.182651 0.304784 1.062142
v -0.290073 0.273306 3.954774
v 0.266454 0.273058 3.949453
v -0.505427 0.218677 5.482582
v 0.485080 0.218235 5.473113
v -0.434346 0.182969 6.298458
v 0.415747 0.182591 6.290329
v -0.215731 0.188615 6.593021
v 0.197777 0.188431 6.589068
v 0.161331 0.310085 -0.079561
v -0.183406 0.310085 -0.076638
v 0.149323 0.253569 -0.624420
v -0.171398 0.253569 -0.621700
vn -0.0023 0.9989 -0.0473
vn -0.0019 0.9942 -0.1073
vn -0.0015 0.9929 -0.1191
vn 0.0003 1.0000 0.0046
vn 0.0006 0.9999 0.0110
vn 0.0008 0.9994 0.0358
vn 0.0009 0.9990 0.0436
vn 0.0003 0.9998 -0.0194
vn -0.0009 0.9947 -0.1032
vn -0.0017 0.9807 -0.1956
vn -0.0039 0.9791 0.2032
usemtl None
s off
f 6//1 3//1 1//1 5//1
f 6//2 5//2 7//2 8//2
f 8//3 7//3 9//3 10//3
f 21//4 22//4 11//4 12//4
f 11//5 13//5 14//5 12//5
f 14//6 13//6 15//6 16//6
f 16//7 15//7 17//7 18//7
f 18//8 17//8 19//8 20//8
f 23//9 24//9 22//9 21//9
f 10//10 9//10 24//10 23//10
f 3//11 4//11 2//11 1//11
