# Blender v2.79 (sub 0) OBJ File: 'mug.blend'
# www.blender.org
mtllib mug_collider.mtl
o Cylinder_Cylinder.002
v -1.873603 5.251983 -4.822259
v -0.666572 5.208803 -4.855342
v 0.460582 5.230393 -4.428030
v 1.334786 5.230393 -3.605045
v 1.823334 5.230393 -2.511765
v 1.851848 5.230393 -1.314632
v 1.415988 5.230393 -0.195899
v 0.582109 5.230393 0.674117
v -0.522838 5.230393 1.162965
v -1.730635 5.230393 1.196221
v -2.857406 5.230393 0.768823
v -3.731611 5.230393 -0.054163
v -4.220159 5.230393 -1.147443
v -4.248673 5.230393 -2.344577
v -3.812812 5.230393 -3.463310
v -2.978932 5.230393 -4.333326
v -0.734662 2.729460 -4.466140
v 0.247143 2.729460 -4.093728
v 1.008876 2.729460 -3.376624
v 1.417710 2.601715 -2.511897
v 1.459415 2.729460 -1.380886
v 1.079631 2.729460 -0.406084
v 0.353035 2.729460 0.352000
v -0.609754 2.729460 0.777954
v -1.662161 2.729460 0.806932
v -2.643967 2.729460 0.434521
v -3.405700 2.729460 -0.282583
v -3.831394 2.729460 -1.235207
v -3.856240 2.729460 -2.278322
v -3.476455 2.729460 -3.253125
v -2.749858 2.729460 -4.011209
v -1.787070 2.729460 -4.437162
v -1.873603 5.251983 -4.822259
v -0.666572 5.208803 -4.855342
v 0.460582 5.230393 -4.428030
v 1.334786 5.230393 -3.605045
v 1.823334 5.230393 -2.511765
v 1.851848 5.230393 -1.314632
v 1.415988 5.230393 -0.195899
v 0.582109 5.230393 0.674117
v -0.522838 5.230393 1.162965
v -1.730635 5.230393 1.196221
v -2.857406 5.230393 0.768823
v -3.731611 5.230393 -0.054163
v -4.220159 5.230393 -1.147443
v -4.248673 5.230393 -2.344577
v -3.812812 5.230393 -3.463310
v -2.978932 5.230393 -4.333326
v -1.913056 8.593975 -4.995239
v -0.635409 8.593975 -5.030418
v 0.556526 8.593975 -4.578302
v 1.481287 8.593975 -3.707722
v 1.998088 8.593975 -2.551215
v 2.028252 8.593975 -1.284850
v 1.567184 8.593975 -0.101418
v 0.685081 8.593975 0.818913
v -0.483768 8.593975 1.336031
v -1.761414 8.593975 1.371211
v -2.953349 8.593975 0.919096
v -3.878111 8.593975 0.048515
v -4.394913 8.593975 -1.107992
v -4.425076 8.593975 -2.374359
v -3.964008 8.593975 -3.557791
v -3.081903 8.593975 -4.478122
v -0.829025 0.842381 -3.929665
v -0.046994 0.842381 -3.633030
v 0.559743 0.842381 -3.061841
v 0.898818 0.842381 -2.303055
v 0.918608 0.842381 -1.472189
v 0.616101 0.842381 -0.695738
v 0.037351 0.842381 -0.091907
v -0.729533 0.842381 0.247376
v -1.567799 0.842381 0.270457
v -2.349830 0.842381 -0.026177
v -2.956568 0.842381 -0.597366
v -3.295642 0.842381 -1.356153
v -3.315432 0.842381 -2.187019
v -3.012925 0.842381 -2.963471
v -2.434175 0.842381 -3.567302
v -1.667291 0.842381 -3.906584
v -0.634390 8.705353 -5.036213
v -1.914350 8.705353 -5.000970
v 0.559702 8.705353 -4.583279
v 1.486138 8.705353 -3.711122
v 2.003875 8.705353 -2.552522
v 2.034093 8.705353 -1.283863
v 1.572191 8.705353 -0.098290
v 0.688490 8.705353 0.823708
v -0.482474 8.705353 1.341762
v -1.762434 8.705353 1.377005
v -2.956526 8.705353 0.924072
v -3.882962 8.705353 0.051915
v -4.400700 8.705353 -1.106686
v -4.430917 8.705353 -2.375345
v -3.969015 8.705353 -3.560919
v -3.085313 8.705353 -4.482916
v -1.660663 0.737948 -3.877221
v -0.834247 0.737948 -3.899976
v -0.063272 0.737948 -3.607535
v 0.534888 0.737948 -3.044421
v 0.869169 0.737948 -2.296361
v 0.888680 0.737948 -1.477242
v 0.590449 0.737948 -0.711768
v 0.019881 0.737948 -0.116473
v -0.736161 0.737948 0.218013
v -1.562577 0.737948 0.240768
v -2.333552 0.737948 -0.051672
v -2.931712 0.737948 -0.614787
v -3.265993 0.737948 -1.362846
v -3.285504 0.737948 -2.181966
v -2.987273 0.737948 -2.947441
v -2.416704 0.737948 -3.542736
v -0.646256 7.408650 -4.968752
v 0.522715 7.408650 -4.525347
v 1.429660 7.408650 -3.671539
v 1.936505 7.408650 -2.537313
v 1.966087 7.408650 -1.295345
v 1.513903 7.408650 -0.134713
v 0.648794 7.408650 0.767887
v -0.497536 7.408650 1.275043
v -1.750568 7.408650 1.309544
v -2.919539 7.408650 0.866139
v -3.826484 7.408650 0.012331
v -4.333329 7.408650 -1.121895
v -4.362911 7.408650 -2.363863
v -3.910727 7.408650 -3.524496
v -3.045617 7.408650 -4.427096
v -1.899288 7.408650 -4.934251
v -0.653934 6.569594 -4.925100
v 0.498781 6.569594 -4.487861
v 1.393115 6.569594 -3.645926
v 1.892912 6.569594 -2.527472
v 1.922083 6.569594 -1.302774
v 1.476186 6.569594 -0.158282
v 0.623107 6.569594 0.731767
v -0.507282 6.569594 1.231871
v -1.742889 6.569594 1.265893
v -2.895605 6.569594 0.828653
v -3.789939 6.569594 -0.013282
v -4.289736 6.569594 -1.131736
v -4.318907 6.569594 -2.356434
v -3.873010 6.569594 -3.500927
v -3.019930 6.569594 -4.390976
v -1.889542 6.569595 -4.891079
v 1.936505 7.408650 -2.537313
v 1.966087 7.408650 -1.295345
v 1.892912 6.569594 -2.527472
v 1.922083 6.569594 -1.302774
v 1.933879 7.408702 -2.537313
v 1.963461 7.408975 -1.295345
v 1.895538 6.569269 -2.527472
v 1.924709 6.569538 -1.302774
v 4.369676 4.937035 -1.324025
v 3.898846 5.064808 -2.556152
v 4.373377 4.966014 -2.565993
v 3.895197 5.036233 -1.331454
v 3.668479 3.796972 -1.324025
v 2.818528 3.041591 -2.565993
v 2.375531 3.238296 -2.556152
v 3.235214 4.021223 -2.556152
v 3.650325 4.586212 -1.331454
v 4.111360 4.441180 -2.565993
v 3.678212 3.824517 -2.565993
v 2.808795 3.014045 -1.324025
v -1.727181 1.785921 -4.171873
v -0.781843 1.785921 -4.197902
v 0.100074 1.785921 -3.863379
v 0.784310 1.785921 -3.219233
v 1.166694 1.785921 -2.363528
v 1.189012 1.785921 -1.426538
v 0.847866 1.785921 -0.550911
v 0.195193 1.785921 0.130046
v -0.669643 1.785921 0.512665
v -1.614980 1.785921 0.538694
v -2.496898 1.785921 0.204172
v -3.181134 1.785921 -0.439975
v -3.563518 1.785921 -1.295680
v -3.585836 1.785921 -2.232671
v -3.244690 1.785921 -3.108298
v -2.592016 1.785921 -3.789255
v -1.748879 2.127772 -4.267989
v -0.764749 2.127772 -4.295086
v 0.153359 2.127772 -3.946836
v 0.865672 2.127772 -3.276257
v 1.263747 2.127772 -2.385437
v 1.286981 2.127772 -1.409998
v 0.931836 2.127772 -0.498439
v 0.252381 2.127772 0.210462
v -0.647945 2.127772 0.608781
v -1.632074 2.127772 0.635879
v -2.550182 2.127772 0.287629
v -3.262496 2.127772 -0.382951
v -3.660571 2.127772 -1.273770
v -3.683805 2.127772 -2.249211
v -3.328660 2.127772 -3.160770
v -2.649204 2.127772 -3.869670
v 1.598358 2.796643 -1.331454
v 2.041219 2.599555 -1.324025
v 3.225617 3.994061 -1.331454
v 1.607956 2.823806 -2.556152
v 3.658452 4.613850 -2.556152
v 4.103117 4.413152 -1.324025
v 2.050953 2.627100 -2.565993
v 2.365933 3.211134 -1.331454
v 4.503296 5.411372 -1.324025
v 4.018716 5.467833 -2.556152
v 4.502655 5.440579 -2.565993
v 4.019349 5.439032 -1.331454
v 4.533599 5.827152 -1.324025
v 4.046941 5.792941 -2.556152
v 4.527562 5.855736 -2.565993
v 4.052895 5.764755 -1.331454
v 4.468755 6.267633 -1.324025
v 3.994836 6.151845 -2.556152
v 4.457985 6.294790 -2.565993
v 4.005457 6.125066 -1.331454
v 4.261663 6.728504 -1.324024
v 3.890054 6.412415 -2.556152
v 4.239855 6.747943 -2.565993
v 3.911559 6.393247 -1.331454
v 3.900411 7.081110 -1.324024
v 3.646936 6.664269 -2.556151
v 3.873599 7.092712 -2.565993
v 3.673374 6.652829 -1.331454
v 3.552228 7.246391 -1.324024
v 3.332227 6.810954 -2.556151
v 3.524589 7.255855 -2.565993
v 3.359482 6.801623 -1.331454
v 2.925078 6.892656 -1.331454
v 3.049129 7.359774 -2.565993
v 2.897102 6.899527 -2.556151
v 3.077501 7.352806 -1.324024
v 2.020476 7.254228 -1.324024
v 2.532271 7.359836 -1.324024
v 2.467489 6.876298 -2.556151
v 1.984501 6.770827 -1.331454
v 1.991262 7.254088 -2.565993
v 2.503057 7.359697 -2.565993
v 1.955694 6.770689 -2.556151
v 2.496296 6.876436 -1.331454
v 1.286981 2.127772 -1.409998
v 1.263747 2.127772 -2.385437
v 1.459415 2.729460 -1.380886
v 1.417710 2.601715 -2.511897
v 1.530324 2.263464 -1.343562
v 1.503748 2.769006 -1.324928
v 1.476694 2.685368 -2.568520
v 1.516758 2.272923 -2.479870
vn -0.0275 -0.0517 -0.9983
vn 0.3542 -0.0518 -0.9337
vn 0.6845 -0.0520 -0.7271
vn 0.9117 -0.0521 -0.4074
vn 0.9984 -0.0522 -0.0238
vn 0.9305 -0.0520 0.3625
vn 0.7210 -0.0518 0.6910
vn 0.4041 -0.0517 0.9133
vn 0.0275 -0.0517 0.9983
vn -0.3542 -0.0518 0.9337
vn -0.6845 -0.0520 0.7271
vn -0.9117 -0.0521 0.4074
vn -0.9984 -0.0521 0.0238
vn -0.9305 -0.0520 -0.3625
vn -0.7210 -0.0518 -0.6910
vn -0.4040 -0.0517 -0.9133
vn 0.0000 0.0000 1.0000
vn -0.0265 -0.2721 -0.9619
vn 0.3412 -0.2728 -0.8995
vn 0.6593 -0.2737 -0.7003
vn 0.8509 -0.3225 -0.4146
vn 0.8962 -0.2737 0.3492
vn 0.6946 -0.2728 0.6657
vn 0.3893 -0.2721 0.8800
vn 0.0265 -0.2721 0.9619
vn -0.3412 -0.2728 0.8995
vn -0.6593 -0.2737 0.7003
vn -0.8779 -0.2744 0.3923
vn -0.9613 -0.2744 0.0229
vn -0.8962 -0.2737 -0.3492
vn -0.6946 -0.2728 -0.6657
vn -0.3893 -0.2721 -0.8800
vn -0.0301 -0.1530 -0.9878
vn 0.3517 -0.1540 -0.9234
vn 0.6773 -0.1540 -0.7194
vn 0.8956 -0.1464 -0.4200
vn 0.9879 -0.1534 -0.0214
vn 0.9207 -0.1540 0.3587
vn 0.7134 -0.1534 0.6838
vn 0.3998 -0.1530 0.9037
vn 0.0272 -0.1530 0.9878
vn -0.3505 -0.1534 0.9239
vn -0.6773 -0.1540 0.7194
vn -0.9020 -0.1544 0.4031
vn -0.9877 -0.1544 0.0235
vn -0.9207 -0.1540 -0.3587
vn -0.7134 -0.1534 -0.6838
vn -0.3985 -0.1524 -0.9044
vn 0.4040 -0.0517 0.9133
vn 0.9984 -0.0521 -0.0238
vn 0.9613 -0.2744 -0.0229
vn 0.8779 -0.2744 -0.3923
vn 0.0000 1.0000 0.0000
vn 0.0000 -1.0000 -0.0000
vn -0.4036 -0.0521 -0.9135
vn 0.3545 -0.0515 -0.9336
vn -0.0283 -0.0517 -0.9983
vn -0.0724 -0.9974 0.0018
vn -0.2760 -0.0003 -0.9612
vn 0.1636 0.0003 -0.9865
vn -0.0716 -0.9974 0.0018
vn -0.4751 0.8798 0.0158
vn -0.0149 0.0164 -0.9998
vn 0.6733 -0.7393 -0.0111
vn -0.0113 0.0124 0.9999
vn 0.4751 -0.8798 -0.0158
vn -0.0122 0.0226 -0.9997
vn -0.8804 0.4742 0.0066
vn -0.0139 0.0073 0.9999
vn -0.6733 0.7393 0.0111
vn -0.0170 0.0120 -0.9998
vn -0.0092 0.0170 0.9998
vn -0.0184 0.0095 -0.9998
vn 0.8177 -0.5756 -0.0070
vn 0.8930 -0.4501 -0.0060
vn -0.0128 0.0091 0.9999
vn -0.8132 0.5820 0.0071
vn -0.0085 -0.0216 0.9997
vn -0.9571 0.2898 0.0056
vn -0.0198 0.0056 -0.9998
vn 0.9637 -0.2670 -0.0051
vn -0.0149 0.0044 0.9999
vn -0.0154 0.0013 0.9999
vn -0.9955 0.0945 0.0049
vn -0.0205 0.0015 -0.9998
vn 0.9978 -0.0663 -0.0042
vn -0.0202 -0.0031 -0.9998
vn 0.9885 0.1511 -0.0033
vn -0.0153 -0.0021 0.9999
vn -0.9906 -0.1371 0.0036
vn -0.0147 -0.0061 0.9999
vn -0.9361 -0.3517 0.0057
vn -0.0191 -0.0086 -0.9998
vn 0.9067 0.4218 -0.0040
vn -0.7282 -0.6853 0.0057
vn -0.0145 -0.0148 -0.9998
vn 0.6920 0.7219 -0.0045
vn -0.0112 -0.0110 0.9999
vn -0.0086 -0.0184 -0.9998
vn 0.4262 0.9047 -0.0017
vn -0.0066 -0.0139 0.9999
vn -0.4254 -0.9050 0.0017
vn -0.0033 -0.0152 0.9999
vn 0.2161 0.9764 0.0016
vn -0.0043 -0.0201 -0.9998
vn -0.2023 -0.9793 -0.0019
vn -0.2021 0.9794 0.0046
vn 0.0459 -0.9989 -0.0038
vn 0.2021 -0.9794 -0.0046
vn 0.0043 -0.0207 -0.9998
vn 0.0001 -0.0158 0.9999
vn 0.0032 -0.0156 0.9999
vn 0.0064 1.0000 0.0026
vn 0.0005 -0.0210 -0.9998
vn 0.4606 -0.0369 0.8868
vn 0.9414 0.3367 -0.0223
vn -0.4507 0.0128 -0.8926
vn 0.9573 -0.2883 -0.0226
vn 0.4919 -0.8706 -0.0125
vn -0.3147 -0.1855 -0.9309
vn -0.7659 0.6421 -0.0350
vn -0.5921 0.8058 -0.0142
vn -0.0094 -0.1356 -0.9907
vn 0.5505 -0.8347 -0.0139
vn -0.3981 0.0129 0.9173
usemtl None
s off
f 49//1 82//1 81//1 50//1
f 50//2 81//2 83//2 51//2
f 51//3 83//3 84//3 52//3
f 52//4 84//4 85//4 53//4
f 53//5 85//5 86//5 54//5
f 54//6 86//6 87//6 55//6
f 55//7 87//7 88//7 56//7
f 56//8 88//8 89//8 57//8
f 57//9 89//9 90//9 58//9
f 58//10 90//10 91//10 59//10
f 59//11 91//11 92//11 60//11
f 60//12 92//12 93//12 61//12
f 61//13 93//13 94//13 62//13
f 62//14 94//14 95//14 63//14
f 63//15 95//15 96//15 64//15
f 64//16 96//16 82//16 49//16
f 48//17 16//17 1//17 33//17
f 47//17 15//17 16//17 48//17
f 46//17 14//17 15//17 47//17
f 45//17 13//17 14//17 46//17
f 44//17 12//17 13//17 45//17
f 43//17 11//17 12//17 44//17
f 42//17 10//17 11//17 43//17
f 41//17 9//17 10//17 42//17
f 40//17 8//17 9//17 41//17
f 39//17 7//17 8//17 40//17
f 38//17 6//17 7//17 39//17
f 37//17 5//17 6//17 38//17
f 36//17 4//17 5//17 37//17
f 35//17 3//17 4//17 36//17
f 34//17 2//17 3//17 35//17
f 33//17 1//17 2//17 34//17
f 181//18 32//18 17//18 182//18
f 182//19 17//19 18//19 183//19
f 183//20 18//20 19//20 184//20
f 184//21 19//21 20//21 185//21
f 186//22 21//22 22//22 187//22
f 187//23 22//23 23//23 188//23
f 188//24 23//24 24//24 189//24
f 189//25 24//25 25//25 190//25
f 190//26 25//26 26//26 191//26
f 191//27 26//27 27//27 192//27
f 192//28 27//28 28//28 193//28
f 193//29 28//29 29//29 194//29
f 194//30 29//30 30//30 195//30
f 195//31 30//31 31//31 196//31
f 196//32 31//32 32//32 181//32
f 32//33 33//33 34//33 17//33
f 17//34 34//34 35//34 18//34
f 18//35 35//35 36//35 19//35
f 19//36 36//36 37//36 20//36
f 20//37 37//37 38//37 21//37
f 21//38 38//38 39//38 22//38
f 22//39 39//39 40//39 23//39
f 23//40 40//40 41//40 24//40
f 24//41 41//41 42//41 25//41
f 25//42 42//42 43//42 26//42
f 26//43 43//43 44//43 27//43
f 27//44 44//44 45//44 28//44
f 28//45 45//45 46//45 29//45
f 29//46 46//46 47//46 30//46
f 30//47 47//47 48//47 31//47
f 31//48 48//48 33//48 32//48
f 127//16 64//16 49//16 128//16
f 126//15 63//15 64//15 127//15
f 125//14 62//14 63//14 126//14
f 124//13 61//13 62//13 125//13
f 123//12 60//12 61//12 124//12
f 122//11 59//11 60//11 123//11
f 121//10 58//10 59//10 122//10
f 120//9 57//9 58//9 121//9
f 119//49 56//49 57//49 120//49
f 118//7 55//7 56//7 119//7
f 117//6 54//6 55//6 118//6
f 116//50 53//50 54//50 117//50
f 115//4 52//4 53//4 116//4
f 114//3 51//3 52//3 115//3
f 113//2 50//2 51//2 114//2
f 128//1 49//1 50//1 113//1
f 112//32 79//32 80//32 97//32
f 111//31 78//31 79//31 112//31
f 110//30 77//30 78//30 111//30
f 109//29 76//29 77//29 110//29
f 108//28 75//28 76//28 109//28
f 107//27 74//27 75//27 108//27
f 106//26 73//26 74//26 107//26
f 105//25 72//25 73//25 106//25
f 104//24 71//24 72//24 105//24
f 103//23 70//23 71//23 104//23
f 102//22 69//22 70//22 103//22
f 101//51 68//51 69//51 102//51
f 100//52 67//52 68//52 101//52
f 99//20 66//20 67//20 100//20
f 98//19 65//19 66//19 99//19
f 97//18 80//18 65//18 98//18
f 81//53 82//53 96//53 95//53 94//53 93//53 92//53 91//53 90//53 89//53 88//53 87//53 86//53 85//53 84//53 83//53
f 97//54 98//54 99//54 100//54 101//54 102//54 103//54 104//54 105//54 106//54 107//54 108//54 109//54 110//54 111//54 112//54
f 144//1 128//1 113//1 129//1
f 129//2 113//2 114//2 130//2
f 130//3 114//3 115//3 131//3
f 131//4 115//4 116//4 132//4
f 117//17 133//17 148//17 146//17
f 133//6 117//6 118//6 134//6
f 134//7 118//7 119//7 135//7
f 135//49 119//49 120//49 136//49
f 136//9 120//9 121//9 137//9
f 137//10 121//10 122//10 138//10
f 138//11 122//11 123//11 139//11
f 139//12 123//12 124//12 140//12
f 140//13 124//13 125//13 141//13
f 141//14 125//14 126//14 142//14
f 142//15 126//15 127//15 143//15
f 143//16 127//16 128//16 144//16
f 16//55 143//55 144//55 1//55
f 15//15 142//15 143//15 16//15
f 14//14 141//14 142//14 15//14
f 13//13 140//13 141//13 14//13
f 12//12 139//12 140//12 13//12
f 11//11 138//11 139//11 12//11
f 10//10 137//10 138//10 11//10
f 9//9 136//9 137//9 10//9
f 8//49 135//49 136//49 9//49
f 7//7 134//7 135//7 8//7
f 6//6 133//6 134//6 7//6
f 5//50 132//50 133//50 6//50
f 4//4 131//4 132//4 5//4
f 3//3 130//3 131//3 4//3
f 2//56 129//56 130//56 3//56
f 1//57 144//57 129//57 2//57
f 148//58 147//58 151//58 152//58
f 133//17 132//17 147//17 148//17
f 132//17 116//17 145//17 147//17
f 116//17 117//17 146//17 145//17
f 147//59 145//59 149//59 151//59
f 146//60 148//60 152//60 150//60
f 145//61 146//61 150//61 149//61
f 204//62 159//62 200//62 197//62
f 160//63 163//63 158//63 159//63
f 163//64 157//64 164//64 158//64
f 157//65 199//65 204//65 164//65
f 158//66 164//66 198//66 203//66
f 159//67 158//67 203//67 200//67
f 201//68 161//68 156//68 154//68
f 161//69 202//69 153//69 156//69
f 79//32 180//32 165//32 80//32
f 78//31 179//31 180//31 79//31
f 77//30 178//30 179//30 78//30
f 76//29 177//29 178//29 77//29
f 75//28 176//28 177//28 76//28
f 74//27 175//27 176//27 75//27
f 73//26 174//26 175//26 74//26
f 72//25 173//25 174//25 73//25
f 71//24 172//24 173//24 72//24
f 70//23 171//23 172//23 71//23
f 69//22 170//22 171//22 70//22
f 68//51 169//51 170//51 69//51
f 67//52 168//52 169//52 68//52
f 66//20 167//20 168//20 67//20
f 65//19 166//19 167//19 66//19
f 80//18 165//18 166//18 65//18
f 180//32 196//32 181//32 165//32
f 179//31 195//31 196//31 180//31
f 178//30 194//30 195//30 179//30
f 177//29 193//29 194//29 178//29
f 176//28 192//28 193//28 177//28
f 175//27 191//27 192//27 176//27
f 174//26 190//26 191//26 175//26
f 173//25 189//25 190//25 174//25
f 172//24 188//24 189//24 173//24
f 171//23 187//23 188//23 172//23
f 170//22 186//22 187//22 171//22
f 169//51 185//51 186//51 170//51
f 168//52 184//52 185//52 169//52
f 167//20 183//20 184//20 168//20
f 166//19 182//19 183//19 167//19
f 165//18 181//18 182//18 166//18
f 199//70 160//70 159//70 204//70
f 244//17 20//17 21//17 243//17
f 163//71 160//71 201//71 162//71
f 164//72 204//72 197//72 198//72
f 162//73 201//73 154//73 155//73
f 157//74 163//74 162//74 202//74
f 202//75 162//75 155//75 153//75
f 199//76 157//76 202//76 161//76
f 160//77 199//77 161//77 201//77
f 242//17 185//17 20//17 244//17
f 241//17 186//17 185//17 242//17
f 245//78 198//78 197//78 246//78
f 154//79 156//79 208//79 206//79
f 155//80 154//80 206//80 207//80
f 153//81 155//81 207//81 205//81
f 156//82 153//82 205//82 208//82
f 208//83 205//83 209//83 212//83
f 206//84 208//84 212//84 210//84
f 207//85 206//85 210//85 211//85
f 205//86 207//86 211//86 209//86
f 211//87 210//87 214//87 215//87
f 209//88 211//88 215//88 213//88
f 212//89 209//89 213//89 216//89
f 210//90 212//90 216//90 214//90
f 216//91 213//91 217//91 220//91
f 214//92 216//92 220//92 218//92
f 215//93 214//93 218//93 219//93
f 213//94 215//94 219//94 217//94
f 218//95 220//95 224//95 222//95
f 219//96 218//96 222//96 223//96
f 217//97 219//97 223//97 221//97
f 220//98 217//98 221//98 224//98
f 223//99 222//99 226//99 227//99
f 221//100 223//100 227//100 225//100
f 224//101 221//101 225//101 228//101
f 222//102 224//102 228//102 226//102
f 228//103 225//103 232//103 229//103
f 225//104 227//104 230//104 232//104
f 227//105 226//105 231//105 230//105
f 226//106 228//106 229//106 231//106
f 234//107 238//107 237//107 233//107
f 231//108 229//108 240//108 235//108
f 235//109 240//109 236//109 239//109
f 238//110 235//110 239//110 237//110
f 229//111 232//111 234//111 240//111
f 240//112 234//112 233//112 236//112
f 232//113 230//113 238//113 234//113
f 230//114 231//114 235//114 238//114
f 152//115 236//115 233//115 146//115
f 237//116 145//116 146//116 233//116
f 237//117 239//117 151//117 145//117
f 152//118 151//118 239//118 236//118
f 186//17 241//17 243//17 21//17
f 245//119 241//119 242//119 248//119
f 248//120 242//120 244//120 247//120
f 247//121 244//121 243//121 246//121
f 200//122 247//122 246//122 197//122
f 203//123 248//123 247//123 200//123
f 198//124 245//124 248//124 203//124
f 241//125 245//125 246//125 243//125
