# Blender v2.79 (sub 0) OBJ File: 'Cup2.blend'
# www.blender.org
mtllib Cup2_collider.mtl
o Cylinder.001
v 0.000000 0.032660 -1.000000
v 0.500000 0.032660 -0.866025
v 0.866025 0.032660 -0.500000
v 1.000000 0.032660 0.000000
v 0.866025 0.032660 0.500000
v 0.500000 0.032660 0.866025
v 0.000000 0.032660 1.000000
v -0.500000 0.032660 0.866026
v -0.866025 0.032660 0.500000
v -1.000000 0.032660 0.000000
v -0.866026 0.032660 -0.499999
v -0.500001 0.032660 -0.866025
v 0.721419 3.517604 -1.249534
v 0.000000 3.517604 -1.442838
v 1.249534 3.517604 -0.721419
v 1.442838 3.517604 0.000000
v 1.249534 3.517604 0.721419
v 0.721419 3.517604 1.249534
v 0.000000 3.517604 1.442838
v -0.721419 3.517604 1.249534
v -1.249534 3.517604 0.721419
v -1.442838 3.517604 0.000001
v -1.249534 3.517604 -0.721418
v -0.721420 3.517604 -1.249534
v 0.000000 0.032837 -0.990925
v 0.495463 0.032837 -0.858167
v 0.858167 0.032837 -0.495463
v 0.990925 0.032837 0.000000
v 0.858167 0.032837 0.495463
v 0.495463 0.032837 0.858167
v 0.000000 0.032837 0.990925
v -0.495463 0.032837 0.858167
v -0.858166 0.032837 0.495463
v -0.990925 0.032837 0.000000
v -0.858167 0.032837 -0.495462
v -0.495463 0.032837 -0.858166
v 0.715419 3.517604 -1.239142
v 0.000000 3.517604 -1.430838
v 1.239142 3.517604 -0.715419
v 1.430838 3.517604 0.000000
v 1.239142 3.517604 0.715419
v 0.715419 3.517604 1.239142
v 0.000000 3.517604 1.430838
v -0.715419 3.517604 1.239142
v -1.239142 3.517604 0.715419
v -1.430838 3.517604 0.000001
v -1.239143 3.517604 -0.715418
v -0.715420 3.517604 -1.239142
vt 0.328870 0.999995
vt 0.340225 0.000000
vt 0.404305 0.000007
vt 0.373282 1.000000
vt 0.233174 1.000000
vt 0.202153 0.000007
vt 0.266232 0.000000
vt 0.277587 0.999995
vt 0.479742 0.999995
vt 0.468385 0.000000
vt 0.542378 0.000000
vt 0.531025 0.999995
vt 0.733176 0.999995
vt 0.744530 0.000000
vt 0.808610 0.000007
vt 0.777588 1.000000
vt 0.637480 1.000000
vt 0.606457 0.000007
vt 0.670537 0.000000
vt 0.681893 0.999995
vt 0.031025 1.000000
vt 0.000000 0.000007
vt 0.064080 0.000000
vt 0.075438 0.999995
vt 0.929946 0.000000
vt 0.974359 0.001670
vt 1.000000 0.004564
vt 1.000000 0.007905
vt 0.974359 0.010798
vt 0.929946 0.012469
vt 0.878663 0.012469
vt 0.834251 0.010798
vt 0.808610 0.007905
vt 0.808610 0.004564
vt 0.834251 0.001670
vt 0.878663 0.000000
vt 0.138073 0.000000
vt 0.126721 0.999995
vt 0.202153 0.000007
vt 0.171133 1.000000
vt 0.435330 1.000000
vt 0.404305 0.000007
vt 0.606457 0.000007
vt 0.575437 1.000000
vt 0.328870 0.999995
vt 0.373282 1.000000
vt 0.404305 0.000007
vt 0.340225 0.000000
vt 0.233174 1.000000
vt 0.277587 0.999995
vt 0.266232 0.000000
vt 0.202153 0.000007
vt 0.479742 0.999995
vt 0.531025 0.999995
vt 0.542378 0.000000
vt 0.468385 0.000000
vt 0.733176 0.999995
vt 0.777588 1.000000
vt 0.808610 0.000007
vt 0.744530 0.000000
vt 0.637480 1.000000
vt 0.681893 0.999995
vt 0.670537 0.000000
vt 0.606457 0.000007
vt 0.031025 1.000000
vt 0.075438 0.999995
vt 0.064080 0.000000
vt 0.000000 0.000007
vt 0.929946 0.000000
vt 0.878663 0.000000
vt 0.834251 0.001670
vt 0.808610 0.004564
vt 0.808610 0.007905
vt 0.834251 0.010798
vt 0.878663 0.012469
vt 0.929946 0.012469
vt 0.974359 0.010798
vt 1.000000 0.007905
vt 1.000000 0.004564
vt 0.974359 0.001670
vt 0.126721 0.999995
vt 0.138073 0.000000
vt 0.171133 1.000000
vt 0.202153 0.000007
vt 0.435330 1.000000
vt 0.404305 0.000007
vt 0.575437 1.000000
vt 0.606457 0.000007
vn -0.9587 -0.1218 -0.2569
vn -0.7018 -0.1218 0.7018
vn 0.2569 -0.1218 0.9587
vn 0.9587 -0.1218 0.2569
vn 0.7018 -0.1218 -0.7018
vn -0.7018 -0.1218 -0.7018
vn 0.0000 -1.0000 -0.0000
vn -0.2569 -0.1218 -0.9587
vn -0.9587 -0.1218 0.2569
vn 0.2569 -0.1218 -0.9587
vn 0.9587 -0.1218 -0.2569
vn 0.7018 -0.1218 0.7018
vn -0.2569 -0.1218 0.9587
vn 0.9588 0.1210 0.2569
vn 0.7019 0.1210 -0.7019
vn -0.2569 0.1210 -0.9588
vn -0.9588 0.1210 -0.2569
vn -0.7019 0.1210 0.7019
vn 0.7019 0.1210 0.7019
vn 0.0000 1.0000 -0.0000
vn 0.2569 0.1210 0.9588
vn 0.9588 0.1210 -0.2569
vn -0.2569 0.1210 0.9588
vn -0.9588 0.1210 0.2569
vn -0.7019 0.1210 -0.7019
vn 0.2569 0.1210 -0.9588
vn 0.0000 1.0000 -0.0001
vn 0.0000 1.0000 0.0001
usemtl None
s off
f 10/1/1 22/2/1 23/3/1 11/4/1
f 8/5/2 20/6/2 21/7/2 9/8/2
f 6/9/3 18/10/3 19/11/3 7/12/3
f 4/13/4 16/14/4 17/15/4 5/16/4
f 2/17/5 13/18/5 15/19/5 3/20/5
f 11/21/6 23/22/6 24/23/6 12/24/6
f 1/25/7 2/26/7 3/27/7 4/28/7 5/29/7 6/30/7 7/31/7 8/32/7 9/33/7 10/34/7 11/35/7 12/36/7
f 12/24/8 24/23/8 14/37/8 1/38/8
f 9/8/9 21/7/9 22/2/9 10/1/9
f 1/38/10 14/37/10 13/39/10 2/40/10
f 3/20/11 15/19/11 16/14/11 4/13/11
f 5/41/12 17/42/12 18/10/12 6/9/12
f 7/12/13 19/11/13 20/43/13 8/44/13
f 34/45/14 35/46/14 47/47/14 46/48/14
f 32/49/15 33/50/15 45/51/15 44/52/15
f 30/53/16 31/54/16 43/55/16 42/56/16
f 28/57/17 29/58/17 41/59/17 40/60/17
f 26/61/18 27/62/18 39/63/18 37/64/18
f 35/65/19 36/66/19 48/67/19 47/68/19
f 25/69/20 36/70/20 35/71/20 34/72/20 33/73/20 32/74/20 31/75/20 30/76/20 29/77/20 28/78/20 27/79/20 26/80/20
f 36/66/21 25/81/21 38/82/21 48/67/21
f 33/50/22 34/45/22 46/48/22 45/51/22
f 25/81/23 26/83/23 37/84/23 38/82/23
f 27/62/24 28/57/24 40/60/24 39/63/24
f 29/85/25 30/53/25 42/56/25 41/86/25
f 31/54/26 32/87/26 44/88/26 43/55/26
f 13/39/27 14/37/27 38/82/27 37/84/27
f 15/19/20 13/18/20 37/64/20 39/63/20
f 16/14/20 15/19/20 39/63/20 40/60/20
f 17/15/20 16/14/20 40/60/20 41/59/20
f 18/10/20 17/42/20 41/86/20 42/56/20
f 19/11/28 18/10/28 42/56/28 43/55/28
f 20/43/28 19/11/28 43/55/28 44/88/28
f 21/7/20 20/6/20 44/52/20 45/51/20
f 22/2/20 21/7/20 45/51/20 46/48/20
f 23/3/20 22/2/20 46/48/20 47/47/20
f 24/23/20 23/22/20 47/68/20 48/67/20
f 14/37/27 24/23/27 48/67/27 38/82/27
o Cylinder
v 0.000000 0.032660 -1.000000
v 0.500000 0.032660 -0.866025
v 0.866025 0.032660 -0.500000
v 1.000000 0.032660 0.000000
v 0.866025 0.032660 0.500000
v 0.500000 0.032660 0.866025
v 0.000000 0.032660 1.000000
v -0.500000 0.032660 0.866026
v -0.866025 0.032660 0.500000
v -1.000000 0.032660 0.000000
v -0.866026 0.032660 -0.499999
v -0.500001 0.032660 -0.866025
v 0.721419 3.517604 -1.249534
v 0.000000 3.517604 -1.442838
v 1.249534 3.517604 -0.721419
v 1.442838 3.517604 0.000000
v 1.249534 3.517604 0.721419
v 0.721419 3.517604 1.249534
v 0.000000 3.517604 1.442838
v -0.721419 3.517604 1.249534
v -1.249534 3.517604 0.721419
v -1.442838 3.517604 0.000001
v -1.249534 3.517604 -0.721418
v -0.721420 3.517604 -1.249534
v 0.000000 0.032837 -0.990925
v 0.495463 0.032837 -0.858167
v 0.858167 0.032837 -0.495463
v 0.990925 0.032837 0.000000
v 0.858167 0.032837 0.495463
v 0.495463 0.032837 0.858167
v 0.000000 0.032837 0.990925
v -0.495463 0.032837 0.858167
v -0.858166 0.032837 0.495463
v -0.990925 0.032837 0.000000
v -0.858167 0.032837 -0.495462
v -0.495463 0.032837 -0.858166
v 0.715419 3.517604 -1.239142
v 0.000000 3.517604 -1.430838
v 1.239142 3.517604 -0.715419
v 1.430838 3.517604 0.000000
v 1.239142 3.517604 0.715419
v 0.715419 3.517604 1.239142
v 0.000000 3.517604 1.430838
v -0.715419 3.517604 1.239142
v -1.239142 3.517604 0.715419
v -1.430838 3.517604 0.000001
v -1.239143 3.517604 -0.715418
v -0.715420 3.517604 -1.239142
vt 0.328870 0.999995
vt 0.340225 0.000000
vt 0.404305 0.000007
vt 0.373282 1.000000
vt 0.233174 1.000000
vt 0.202153 0.000007
vt 0.266232 0.000000
vt 0.277587 0.999995
vt 0.479742 0.999995
vt 0.468385 0.000000
vt 0.542378 0.000000
vt 0.531025 0.999995
vt 0.733176 0.999995
vt 0.744530 0.000000
vt 0.808610 0.000007
vt 0.777588 1.000000
vt 0.637480 1.000000
vt 0.606457 0.000007
vt 0.670537 0.000000
vt 0.681893 0.999995
vt 0.031025 1.000000
vt 0.000000 0.000007
vt 0.064080 0.000000
vt 0.075438 0.999995
vt 0.929946 0.000000
vt 0.974359 0.001670
vt 1.000000 0.004564
vt 1.000000 0.007905
vt 0.974359 0.010798
vt 0.929946 0.012469
vt 0.878663 0.012469
vt 0.834251 0.010798
vt 0.808610 0.007905
vt 0.808610 0.004564
vt 0.834251 0.001670
vt 0.878663 0.000000
vt 0.138073 0.000000
vt 0.126721 0.999995
vt 0.202153 0.000007
vt 0.171133 1.000000
vt 0.435330 1.000000
vt 0.404305 0.000007
vt 0.606457 0.000007
vt 0.575437 1.000000
vt 0.328870 0.999995
vt 0.373282 1.000000
vt 0.404305 0.000007
vt 0.340225 0.000000
vt 0.233174 1.000000
vt 0.277587 0.999995
vt 0.266232 0.000000
vt 0.202153 0.000007
vt 0.479742 0.999995
vt 0.531025 0.999995
vt 0.542378 0.000000
vt 0.468385 0.000000
vt 0.733176 0.999995
vt 0.777588 1.000000
vt 0.808610 0.000007
vt 0.744530 0.000000
vt 0.637480 1.000000
vt 0.681893 0.999995
vt 0.670537 0.000000
vt 0.606457 0.000007
vt 0.031025 1.000000
vt 0.075438 0.999995
vt 0.064080 0.000000
vt 0.000000 0.000007
vt 0.929946 0.000000
vt 0.878663 0.000000
vt 0.834251 0.001670
vt 0.808610 0.004564
vt 0.808610 0.007905
vt 0.834251 0.010798
vt 0.878663 0.012469
vt 0.929946 0.012469
vt 0.974359 0.010798
vt 1.000000 0.007905
vt 1.000000 0.004564
vt 0.974359 0.001670
vt 0.126721 0.999995
vt 0.138073 0.000000
vt 0.171133 1.000000
vt 0.202153 0.000007
vt 0.435330 1.000000
vt 0.404305 0.000007
vt 0.575437 1.000000
vt 0.606457 0.000007
vn -0.9587 -0.1218 -0.2569
vn -0.7018 -0.1218 0.7018
vn 0.2569 -0.1218 0.9587
vn 0.9587 -0.1218 0.2569
vn 0.7018 -0.1218 -0.7018
vn -0.7018 -0.1218 -0.7018
vn 0.0000 -1.0000 -0.0000
vn -0.2569 -0.1218 -0.9587
vn -0.9587 -0.1218 0.2569
vn 0.2569 -0.1218 -0.9587
vn 0.9587 -0.1218 -0.2569
vn 0.7018 -0.1218 0.7018
vn -0.2569 -0.1218 0.9587
vn 0.9588 0.1210 0.2569
vn 0.7019 0.1210 -0.7019
vn -0.2569 0.1210 -0.9588
vn -0.9588 0.1210 -0.2569
vn -0.7019 0.1210 0.7019
vn 0.7019 0.1210 0.7019
vn 0.0000 1.0000 -0.0000
vn 0.2569 0.1210 0.9588
vn 0.9588 0.1210 -0.2569
vn -0.2569 0.1210 0.9588
vn -0.9588 0.1210 0.2569
vn -0.7019 0.1210 -0.7019
vn 0.2569 0.1210 -0.9588
vn 0.0000 1.0000 -0.0001
vn 0.0000 1.0000 0.0001
usemtl None
s off
f 58/89/29 70/90/29 71/91/29 59/92/29
f 56/93/30 68/94/30 69/95/30 57/96/30
f 54/97/31 66/98/31 67/99/31 55/100/31
f 52/101/32 64/102/32 65/103/32 53/104/32
f 50/105/33 61/106/33 63/107/33 51/108/33
f 59/109/34 71/110/34 72/111/34 60/112/34
f 49/113/35 50/114/35 51/115/35 52/116/35 53/117/35 54/118/35 55/119/35 56/120/35 57/121/35 58/122/35 59/123/35 60/124/35
f 60/112/36 72/111/36 62/125/36 49/126/36
f 57/96/37 69/95/37 70/90/37 58/89/37
f 49/126/38 62/125/38 61/127/38 50/128/38
f 51/108/39 63/107/39 64/102/39 52/101/39
f 53/129/40 65/130/40 66/98/40 54/97/40
f 55/100/41 67/99/41 68/131/41 56/132/41
f 82/133/42 83/134/42 95/135/42 94/136/42
f 80/137/43 81/138/43 93/139/43 92/140/43
f 78/141/44 79/142/44 91/143/44 90/144/44
f 76/145/45 77/146/45 89/147/45 88/148/45
f 74/149/46 75/150/46 87/151/46 85/152/46
f 83/153/47 84/154/47 96/155/47 95/156/47
f 73/157/48 84/158/48 83/159/48 82/160/48 81/161/48 80/162/48 79/163/48 78/164/48 77/165/48 76/166/48 75/167/48 74/168/48
f 84/154/49 73/169/49 86/170/49 96/155/49
f 81/138/50 82/133/50 94/136/50 93/139/50
f 73/169/51 74/171/51 85/172/51 86/170/51
f 75/150/52 76/145/52 88/148/52 87/151/52
f 77/173/53 78/141/53 90/144/53 89/174/53
f 79/142/54 80/175/54 92/176/54 91/143/54
f 61/127/55 62/125/55 86/170/55 85/172/55
f 63/107/48 61/106/48 85/152/48 87/151/48
f 64/102/48 63/107/48 87/151/48 88/148/48
f 65/103/48 64/102/48 88/148/48 89/147/48
f 66/98/48 65/130/48 89/174/48 90/144/48
f 67/99/56 66/98/56 90/144/56 91/143/56
f 68/131/56 67/99/56 91/143/56 92/176/56
f 69/95/48 68/94/48 92/140/48 93/139/48
f 70/90/48 69/95/48 93/139/48 94/136/48
f 71/91/48 70/90/48 94/136/48 95/135/48
f 72/111/48 71/110/48 95/156/48 96/155/48
f 62/125/55 72/111/55 96/155/55 86/170/55
