# Blender v2.79 (sub 0) OBJ File: 'Cup2.blend'
# www.blender.org
mtllib Cup2.mtl
o Cylinder
v 0.000000 0.032660 -1.000000
v 0.000000 0.077646 -1.000000
v 0.500000 0.032660 -0.866025
v 0.500000 0.077646 -0.866025
v 0.866025 0.032660 -0.500000
v 0.866025 0.077646 -0.500000
v 1.000000 0.032660 0.000000
v 1.000000 0.077646 0.000000
v 0.866025 0.032660 0.500000
v 0.866025 0.077646 0.500000
v 0.500000 0.032660 0.866025
v 0.500000 0.077646 0.866025
v 0.000000 0.032660 1.000000
v 0.000000 0.077646 1.000000
v -0.500000 0.032660 0.866026
v -0.500000 0.077646 0.866026
v -0.866025 0.032660 0.500000
v -0.866025 0.077646 0.500000
v -1.000000 0.032660 0.000000
v -1.000000 0.077646 0.000000
v -0.866026 0.032660 -0.499999
v -0.866026 0.077646 -0.499999
v -0.500001 0.032660 -0.866025
v -0.500001 0.077646 -0.866025
v 0.721419 3.517604 -1.249534
v 0.000000 3.517604 -1.442838
v 1.249534 3.517604 -0.721419
v 1.442838 3.517604 0.000000
v 1.249534 3.517604 0.721419
v 0.721419 3.517604 1.249534
v 0.000000 3.517604 1.442838
v -0.721419 3.517604 1.249534
v -1.249534 3.517604 0.721419
v -1.442838 3.517604 0.000001
v -1.249534 3.517604 -0.721418
v -0.721420 3.517604 -1.249534
v 0.000000 0.032837 -0.990914
v 0.000000 0.077646 -0.988000
v 0.495457 0.032837 -0.858157
v 0.494000 0.077646 -0.855633
v 0.858157 0.032837 -0.495457
v 0.855633 0.077646 -0.494000
v 0.990914 0.032837 0.000000
v 0.988000 0.077646 0.000000
v 0.858157 0.032837 0.495457
v 0.855633 0.077646 0.494000
v 0.495457 0.032837 0.858157
v 0.494000 0.077646 0.855633
v 0.000000 0.032837 0.990914
v 0.000000 0.077646 0.988000
v -0.495457 0.032837 0.858157
v -0.494000 0.077646 0.855633
v -0.858157 0.032837 0.495458
v -0.855633 0.077646 0.494000
v -0.990914 0.032837 0.000000
v -0.988000 0.077646 0.000000
v -0.858157 0.032837 -0.495457
v -0.855633 0.077646 -0.494000
v -0.495458 0.032837 -0.858156
v -0.494001 0.077646 -0.855633
v 0.715419 3.517604 -1.239142
v 0.000000 3.517604 -1.430838
v 1.239142 3.517604 -0.715419
v 1.430838 3.517604 0.000000
v 1.239142 3.517604 0.715419
v 0.715419 3.517604 1.239142
v 0.000000 3.517604 1.430838
v -0.715419 3.517604 1.239142
v -1.239142 3.517604 0.715419
v -1.430838 3.517604 0.000001
v -1.239143 3.517604 -0.715418
v -0.715420 3.517604 -1.239142
vt 0.328872 0.999997
vt 0.328872 0.987089
vt 0.373284 0.987091
vt 0.373284 1.000000
vt 0.031028 1.000000
vt 0.031027 0.987091
vt 0.075440 0.987089
vt 0.075440 0.999997
vt 0.126723 0.987089
vt 0.126723 0.999997
vt 0.171135 0.987091
vt 0.171135 1.000000
vt 0.435330 1.000000
vt 0.435330 0.987092
vt 0.479742 0.987089
vt 0.479742 0.999997
vt 0.531025 0.987089
vt 0.531025 0.999997
vt 0.575437 0.987092
vt 0.575437 1.000000
vt 0.637482 1.000000
vt 0.637482 0.987091
vt 0.681895 0.987089
vt 0.681895 0.999997
vt 0.733178 0.987089
vt 0.733178 0.999997
vt 0.777590 0.987091
vt 0.777590 1.000000
vt 0.468385 0.000000
vt 0.542378 0.000000
vt 0.233177 1.000000
vt 0.233177 0.987091
vt 0.277589 0.987089
vt 0.277589 0.999997
vt 0.929946 0.000000
vt 0.974359 0.001670
vt 1.000000 0.004564
vt 1.000000 0.007905
vt 0.974359 0.010798
vt 0.929946 0.012469
vt 0.878663 0.012469
vt 0.834251 0.010798
vt 0.808610 0.007905
vt 0.808610 0.004564
vt 0.834251 0.001670
vt 0.878663 0.000000
vt 0.404305 0.000004
vt 0.138073 0.000000
vt 0.202152 0.000004
vt 0.266232 0.000000
vt 0.340225 0.000000
vt 0.404305 0.000004
vt 0.064080 0.000000
vt 0.202152 0.000004
vt 0.000000 0.000004
vt 0.744530 0.000000
vt 0.808610 0.000004
vt 0.670537 0.000000
vt 0.606457 0.000004
vt 0.328872 0.999997
vt 0.373284 1.000000
vt 0.373284 0.987091
vt 0.328872 0.987089
vt 0.031028 1.000000
vt 0.075440 0.999997
vt 0.075440 0.987089
vt 0.031027 0.987091
vt 0.126723 0.999997
vt 0.126723 0.987089
vt 0.171135 1.000000
vt 0.171135 0.987091
vt 0.435330 1.000000
vt 0.479742 0.999997
vt 0.479742 0.987089
vt 0.435330 0.987092
vt 0.531025 0.999997
vt 0.531025 0.987089
vt 0.575437 1.000000
vt 0.575437 0.987092
vt 0.637482 1.000000
vt 0.681895 0.999997
vt 0.681895 0.987089
vt 0.637482 0.987091
vt 0.733178 0.999997
vt 0.733178 0.987089
vt 0.777590 1.000000
vt 0.777590 0.987091
vt 0.542378 0.000000
vt 0.468385 0.000000
vt 0.233177 1.000000
vt 0.277589 0.999997
vt 0.277589 0.987089
vt 0.233177 0.987091
vt 0.929946 0.000000
vt 0.878663 0.000000
vt 0.834251 0.001670
vt 0.808610 0.004564
vt 0.808610 0.007905
vt 0.834251 0.010798
vt 0.878663 0.012469
vt 0.929946 0.012469
vt 0.974359 0.010798
vt 1.000000 0.007905
vt 1.000000 0.004564
vt 0.974359 0.001670
vt 0.404305 0.000004
vt 0.202152 0.000004
vt 0.138073 0.000000
vt 0.340225 0.000000
vt 0.266232 0.000000
vt 0.404305 0.000004
vt 0.064080 0.000000
vt 0.202152 0.000004
vt 0.000000 0.000004
vt 0.808610 0.000004
vt 0.744530 0.000000
vt 0.670537 0.000000
vt 0.606457 0.000004
vn 0.2588 0.0000 -0.9659
vn 0.7071 0.0000 -0.7071
vn 0.9659 0.0000 -0.2588
vn 0.9659 0.0000 0.2588
vn 0.7071 0.0000 0.7071
vn 0.2588 0.0000 0.9659
vn -0.2588 0.0000 0.9659
vn -0.7071 0.0000 0.7071
vn -0.9659 0.0000 0.2588
vn -0.9659 0.0000 -0.2588
vn 0.2568 -0.1234 0.9585
vn -0.7071 0.0000 -0.7071
vn -0.2588 0.0000 -0.9659
vn 0.0000 -1.0000 -0.0000
vn 0.7017 -0.1234 0.7017
vn 0.9585 -0.1234 0.2568
vn -0.2568 -0.1234 -0.9585
vn 0.2568 -0.1234 -0.9585
vn 0.9585 -0.1234 -0.2568
vn -0.7017 -0.1234 -0.7017
vn 0.7017 -0.1234 -0.7017
vn -0.9585 -0.1234 -0.2568
vn -0.9585 -0.1234 0.2568
vn -0.7017 -0.1234 0.7017
vn -0.2568 -0.1234 0.9585
vn -0.2583 -0.0627 0.9640
vn -0.7057 -0.0627 0.7057
vn -0.9640 -0.0627 0.2583
vn -0.9640 -0.0627 -0.2583
vn -0.7057 -0.0627 -0.7057
vn -0.2583 -0.0627 -0.9640
vn 0.2583 -0.0627 -0.9640
vn 0.7057 -0.0627 -0.7057
vn 0.9640 -0.0627 -0.2583
vn 0.9640 -0.0627 0.2583
vn -0.2568 0.1234 -0.9585
vn 0.7057 -0.0627 0.7057
vn 0.2583 -0.0627 0.9640
vn 0.0000 1.0000 0.0000
vn -0.7017 0.1234 -0.7017
vn -0.9585 0.1234 -0.2568
vn 0.2568 0.1234 0.9585
vn -0.2568 0.1234 0.9585
vn -0.9585 0.1234 0.2568
vn 0.7017 0.1234 0.7017
vn -0.7017 0.1234 0.7017
vn 0.9585 0.1234 0.2568
vn 0.9585 0.1234 -0.2568
vn 0.7017 0.1234 -0.7017
vn 0.2568 0.1234 -0.9585
vn 0.0000 1.0000 -0.0001
vn 0.0000 1.0000 0.0001
usemtl None
s off
f 1/1/1 2/2/1 4/3/1 3/4/1
f 3/5/2 4/6/2 6/7/2 5/8/2
f 5/8/3 6/7/3 8/9/3 7/10/3
f 7/10/4 8/9/4 10/11/4 9/12/4
f 9/13/5 10/14/5 12/15/5 11/16/5
f 11/16/6 12/15/6 14/17/6 13/18/6
f 13/18/7 14/17/7 16/19/7 15/20/7
f 15/21/8 16/22/8 18/23/8 17/24/8
f 17/24/9 18/23/9 20/25/9 19/26/9
f 19/26/10 20/25/10 22/27/10 21/28/10
f 14/17/11 12/15/11 30/29/11 31/30/11
f 21/31/12 22/32/12 24/33/12 23/34/12
f 23/34/13 24/33/13 2/2/13 1/1/13
f 1/35/14 3/36/14 5/37/14 7/38/14 9/39/14 11/40/14 13/41/14 15/42/14 17/43/14 19/44/14 21/45/14 23/46/14
f 12/15/15 10/14/15 29/47/15 30/29/15
f 10/11/16 8/9/16 28/48/16 29/49/16
f 2/2/17 24/33/17 36/50/17 26/51/17
f 4/3/18 2/2/18 26/51/18 25/52/18
f 8/9/19 6/7/19 27/53/19 28/48/19
f 24/33/20 22/32/20 35/54/20 36/50/20
f 6/7/21 4/6/21 25/55/21 27/53/21
f 22/27/22 20/25/22 34/56/22 35/57/22
f 20/25/23 18/23/23 33/58/23 34/56/23
f 18/23/24 16/22/24 32/59/24 33/58/24
f 16/19/25 14/17/25 31/30/25 32/59/25
f 37/60/26 39/61/26 40/62/26 38/63/26
f 39/64/27 41/65/27 42/66/27 40/67/27
f 41/65/28 43/68/28 44/69/28 42/66/28
f 43/68/29 45/70/29 46/71/29 44/69/29
f 45/72/30 47/73/30 48/74/30 46/75/30
f 47/73/31 49/76/31 50/77/31 48/74/31
f 49/76/32 51/78/32 52/79/32 50/77/32
f 51/80/33 53/81/33 54/82/33 52/83/33
f 53/81/34 55/84/34 56/85/34 54/82/34
f 55/84/35 57/86/35 58/87/35 56/85/35
f 50/77/36 67/88/36 66/89/36 48/74/36
f 57/90/37 59/91/37 60/92/37 58/93/37
f 59/91/38 37/60/38 38/63/38 60/92/38
f 37/94/39 59/95/39 57/96/39 55/97/39 53/98/39 51/99/39 49/100/39 47/101/39 45/102/39 43/103/39 41/104/39 39/105/39
f 48/74/40 66/89/40 65/106/40 46/75/40
f 46/71/41 65/107/41 64/108/41 44/69/41
f 38/63/42 62/109/42 72/110/42 60/92/42
f 40/62/43 61/111/43 62/109/43 38/63/43
f 44/69/44 64/108/44 63/112/44 42/66/44
f 60/92/45 72/110/45 71/113/45 58/93/45
f 42/66/46 63/112/46 61/114/46 40/67/46
f 58/87/47 71/115/47 70/116/47 56/85/47
f 56/85/48 70/116/48 69/117/48 54/82/48
f 54/82/49 69/117/49 68/118/49 52/83/49
f 52/79/50 68/118/50 67/88/50 50/77/50
f 25/52/51 26/51/51 62/109/51 61/111/51
f 27/53/39 25/55/39 61/114/39 63/112/39
f 28/48/39 27/53/39 63/112/39 64/108/39
f 29/49/39 28/48/39 64/108/39 65/107/39
f 30/29/39 29/47/39 65/106/39 66/89/39
f 31/30/52 30/29/52 66/89/52 67/88/52
f 32/59/52 31/30/52 67/88/52 68/118/52
f 33/58/39 32/59/39 68/118/39 69/117/39
f 34/56/39 33/58/39 69/117/39 70/116/39
f 35/57/39 34/56/39 70/116/39 71/115/39
f 36/50/39 35/54/39 71/113/39 72/110/39
f 26/51/51 36/50/51 72/110/51 62/109/51
